<svg width="40" height="40" viewBox="0 0 40 40" fill="none" xmlns="http://www.w3.org/2000/svg">
  <defs>
    <linearGradient id="doorGrad" x1="0" y1="0" x2="0" y2="40">
      <stop offset="0%" stop-color="#A66835" />
      <stop offset="100%" stop-color="#7A4B24" />
    </linearGradient>
    <linearGradient id="goldGrad" x1="0" y1="0" x2="40" y2="40">
      <stop offset="0%" stop-color="#D4AF37" />
      <stop offset="100%" stop-color="#B48E2E" />
    </linearGradient>
  </defs>
  
  {/* Outer Arch Shape */}
  <path d="M20 4 C14 4 8 10 8 18 L8 36 L12 36 L12 18 C12 14 16 12 20 12 C24 12 28 14 28 18 L28 36 L32 36 L32 18 C32 10 26 4 20 4 Z" fill="url(#doorGrad)" />
  
  {/* Middle Arch Detail */}
  <path d="M20 7 C15 7 11 11 11 18 L11 36 L13 36 L13 18 C13 15 16 13 20 13 C24 13 27 15 27 18 L27 36 L29 36 L29 18 C29 11 25 7 20 7 Z" fill="#E8C37C" />
  
  {/* Inner Decorative Door / Lattice Area */}
  <path d="M20 10 C16 10 14 14 14 18 L14 36 L26 36 L26 18 C26 14 24 10 20 10 Z" fill="url(#goldGrad)" opacity="0.9" />
  
  {/* Keyhole Shape */}
  <path d="M20 20 C18.895 20 18 20.895 18 22 C18 22.845 18.528 23.567 19.261 23.854 L18.5 27 L21.5 27 L20.739 23.854 C21.472 23.567 22 22.845 22 22 C22 20.895 21.105 20 20 20 Z" fill="white" />
</svg>
